<svg width="41" height="65" viewBox="0 0 41 65" fill="none" xmlns="http://www.w3.org/2000/svg">
<path d="M0.195312 7.54697V0.979493C0.195312 0.410255 0.841991 0.0958994 1.27871 0.444239L39.1389 30.359C39.4605 30.6121 39.7208 30.9361 39.8999 31.3064C40.0789 31.6767 40.172 32.0835 40.172 32.4958C40.172 32.908 40.0789 33.3148 39.8999 33.6851C39.7208 34.0554 39.4605 34.3795 39.1389 34.6325L1.27871 64.5473C0.833595 64.8956 0.195312 64.5813 0.195312 64.012V57.4445C0.195312 57.0282 0.388474 56.6289 0.707615 56.374L30.942 32.5L0.707615 8.61748C0.388474 8.3626 0.195312 7.96328 0.195312 7.54697Z" fill="#3FA9F5"/>
</svg>
