<svg width="27" height="27" viewBox="0 0 27 27" fill="none" xmlns="http://www.w3.org/2000/svg">
<path fill-rule="evenodd" clip-rule="evenodd" d="M4.75 1.10417C4.75 0.91078 4.82682 0.725313 4.96357 0.588568C5.10031 0.451823 5.28578 0.375 5.47917 0.375H21.5208C21.7142 0.375 21.8997 0.451823 22.0364 0.588568C22.1732 0.725313 22.25 0.91078 22.25 1.10417V1.83333H25.8958C26.0892 1.83333 26.2747 1.91016 26.4114 2.0469C26.5482 2.18365 26.625 2.36911 26.625 2.5625V6.9375C26.625 7.90444 26.2409 8.83177 25.5572 9.51549C24.8734 10.1992 23.9461 10.5833 22.9792 10.5833H21.752C21.2308 12.0541 20.3263 13.3591 19.132 14.3633C17.9376 15.3676 16.4968 16.0346 14.9583 16.2956V20.7917H19.3333C19.5267 20.7917 19.7122 20.8685 19.8489 21.0052C19.9857 21.142 20.0625 21.3274 20.0625 21.5208V25.8958C20.0625 26.0892 19.9857 26.2747 19.8489 26.4114C19.7122 26.5482 19.5267 26.625 19.3333 26.625H7.66667C7.47328 26.625 7.28781 26.5482 7.15107 26.4114C7.01432 26.2747 6.9375 26.0892 6.9375 25.8958V21.5208C6.9375 21.3274 7.01432 21.142 7.15107 21.0052C7.28781 20.8685 7.47328 20.7917 7.66667 20.7917H12.0417V16.2956C10.5032 16.0346 9.06238 15.3676 7.86805 14.3633C6.67371 13.3591 5.76921 12.0541 5.24802 10.5833H4.02083C3.0539 10.5833 2.12657 10.1992 1.44284 9.51549C0.759113 8.83177 0.375 7.90444 0.375 6.9375V2.5625C0.375 2.36911 0.451823 2.18365 0.588568 2.0469C0.725313 1.91016 0.91078 1.83333 1.10417 1.83333H4.75V1.10417ZM22.25 7.66667V3.29167H25.1667V6.9375C25.1667 7.51766 24.9362 8.07406 24.526 8.4843C24.1157 8.89453 23.5593 9.125 22.9792 9.125H22.25V7.66667ZM4.75 3.29167H1.83333V6.9375C1.83333 7.51766 2.0638 8.07406 2.47404 8.4843C2.88427 8.89453 3.44067 9.125 4.02083 9.125H4.75V3.29167Z" fill="#F8F8F8"/>
</svg>
