<svg width="97" height="76" viewBox="0 0 97 76" fill="none" xmlns="http://www.w3.org/2000/svg">
<path d="M80.7 49.4999C82.3771 45.9583 83.2875 42.1666 83.2875 37.9999C83.2875 34.9999 82.7604 32.1249 81.85 29.4583C78.7354 30.0833 75.4771 30.4166 72.075 30.4166C65.1078 30.4231 58.2409 28.9729 52.0531 26.1884C45.8654 23.4038 40.5383 19.3664 36.5208 14.4166C32.2231 23.459 24.1158 30.7324 13.8562 34.7499C13.6646 35.7916 13.6646 36.9166 13.6646 37.9999C13.6646 41.9779 14.5656 45.9169 16.3163 49.5921C18.0669 53.2672 20.6329 56.6065 23.8676 59.4194C30.4005 65.1002 39.2611 68.2916 48.5 68.2916C53.5312 68.2916 58.3708 67.3333 62.7312 65.6249C65.4625 70.1666 66.7083 72.4166 66.6125 72.4166C58.7542 74.7083 52.6687 75.8333 48.5 75.8333C36.9041 75.8333 25.8354 71.8749 17.6896 64.7499C12.735 60.4549 9.05196 55.1791 6.95623 49.3749H0.583313V30.4166H5.80623C7.38864 23.7187 11.0267 17.5183 16.3344 12.4732C21.6421 7.42816 28.4215 3.72664 35.9531 1.76143C43.4848 -0.20377 51.4878 -0.359344 59.1129 1.31122C66.738 2.98178 73.7008 6.41616 79.2625 11.2499C85.3011 16.4802 89.4199 23.1504 91.0979 30.4166H96.4167V49.3749H96.1292L79.0708 62.9999L53.675 60.4999V53.5416H76.8187L80.7 49.4999ZM35.4187 37.0416C36.8562 37.0416 38.2458 37.5416 39.2521 38.4583C40.2633 39.3448 40.8308 40.5429 40.8308 41.7916C40.8308 43.0403 40.2633 44.2384 39.2521 45.1249C38.2458 45.9999 36.8562 46.4999 35.4187 46.4999C32.4 46.4999 29.9562 44.4166 29.9562 41.7916C29.9562 39.1666 32.4 37.0416 35.4187 37.0416ZM61.5333 37.0416C64.5521 37.0416 66.9479 39.1666 66.9479 41.7916C66.9479 44.4166 64.5521 46.4999 61.5333 46.4999C58.5146 46.4999 56.0708 44.4166 56.0708 41.7916C56.0708 40.5318 56.6463 39.3236 57.6707 38.4328C58.6952 37.542 60.0846 37.0416 61.5333 37.0416Z" fill="#F8F8F8"/>
</svg>
