<svg width="73" height="79" viewBox="0 0 73 79" fill="none" xmlns="http://www.w3.org/2000/svg">
<path d="M58.25 52.625H51V61.375H58.25M58.25 35.125H51V43.875H58.25M65.5 70.125H36.5V61.375H43.75V52.625H36.5V43.875H43.75V35.125H36.5V26.375H65.5M29.25 17.625H22V8.875H29.25M29.25 35.125H22V26.375H29.25M29.25 52.625H22V43.875H29.25M29.25 70.125H22V61.375H29.25M14.75 17.625H7.5V8.875H14.75M14.75 35.125H7.5V26.375H14.75M14.75 52.625H7.5V43.875H14.75M14.75 70.125H7.5V61.375H14.75M36.5 17.625V0.125H0.25V78.875H72.75V17.625H36.5Z" fill="#F8F8F8"/>
</svg>
