<svg width="35" height="44" viewBox="0 0 35 44" fill="none" xmlns="http://www.w3.org/2000/svg">
<path d="M4.99998 43.8333C3.85415 43.8333 2.8729 43.425 2.05623 42.6083C1.23957 41.7916 0.831928 40.8111 0.833317 39.6666V18.8333C0.833317 17.6875 1.24165 16.7062 2.05832 15.8896C2.87498 15.0729 3.85554 14.6653 4.99998 14.6666H7.08332V10.5C7.08332 7.61804 8.09929 5.16109 10.1312 3.12915C12.1632 1.0972 14.6194 0.0819255 17.5 0.0833144C20.3819 0.0833144 22.8389 1.09929 24.8708 3.13123C26.9028 5.16318 27.918 7.61942 27.9167 10.5V14.6666H30C31.1458 14.6666 32.1271 15.075 32.9437 15.8916C33.7604 16.7083 34.168 17.6889 34.1667 18.8333V39.6666C34.1667 40.8125 33.7583 41.7937 32.9417 42.6104C32.125 43.4271 31.1444 43.8347 30 43.8333H4.99998ZM17.5 33.4166C18.6458 33.4166 19.6271 33.0083 20.4437 32.1916C21.2604 31.375 21.668 30.3944 21.6667 29.25C21.6667 28.1041 21.2583 27.1229 20.4417 26.3062C19.625 25.4896 18.6444 25.0819 17.5 25.0833C16.3542 25.0833 15.3729 25.4916 14.5562 26.3083C13.7396 27.125 13.3319 28.1055 13.3333 29.25C13.3333 30.3958 13.7417 31.3771 14.5583 32.1937C15.375 33.0104 16.3555 33.418 17.5 33.4166ZM11.25 14.6666H23.75V10.5C23.75 8.76387 23.1423 7.28818 21.9271 6.0729C20.7118 4.85762 19.2361 4.24998 17.5 4.24998C15.7639 4.24998 14.2882 4.85762 13.0729 6.0729C11.8576 7.28818 11.25 8.76387 11.25 10.5V14.6666Z" fill="#F8F8F8"/>
</svg>
