<svg width="48" height="43" viewBox="0 0 48 43" fill="none" xmlns="http://www.w3.org/2000/svg">
<path d="M47.375 19.25C47.375 18.1228 46.9272 17.0418 46.1302 16.2448C45.3332 15.4478 44.2522 15 43.125 15H29.695L31.735 5.28875C31.7775 5.07625 31.7988 4.8425 31.7988 4.60875C31.7988 3.7375 31.4375 2.93 30.8638 2.35625L28.6113 0.125L14.6288 14.1075C13.8425 14.8937 13.375 15.9562 13.375 17.125V38.375C13.375 39.5022 13.8228 40.5832 14.6198 41.3802C15.4168 42.1772 16.4978 42.625 17.625 42.625H36.75C38.5138 42.625 40.0225 41.5625 40.66 40.0325L47.0775 25.0512C47.2688 24.5625 47.375 24.0525 47.375 23.5V19.25ZM0.625 42.625H9.125V17.125H0.625V42.625Z" fill="#F8F8F8"/>
</svg>
