<svg width="29" height="29" viewBox="0 0 29 29" fill="none" xmlns="http://www.w3.org/2000/svg">
<path d="M1.60728 3.60729C0.818886 4.39576 0.375977 5.4651 0.375977 6.58011C0.375977 7.69511 0.818886 8.76446 1.60728 9.55292L3.92166 11.8688C3.93942 11.8486 3.9579 11.8292 3.97707 11.8104L9.81041 5.97709C9.82918 5.95792 9.84864 5.93944 9.86874 5.92167L7.55291 3.60729C6.76444 2.8189 5.6951 2.37599 4.58009 2.37599C3.46509 2.37599 2.39574 2.8189 1.60728 3.60729ZM11.4117 7.46459C11.3939 7.48471 11.3754 7.50416 11.3562 7.52292L5.52291 13.3563C5.50415 13.3754 5.48469 13.3939 5.46457 13.4117L19.4471 27.3942C20.2402 28.1607 21.3028 28.585 22.4058 28.5756C23.5088 28.5662 24.5639 28.1239 25.3439 27.3439C26.1239 26.564 26.5662 25.5088 26.5756 24.4058C26.585 23.3028 26.1607 22.2402 25.3942 21.4471L11.4117 7.46459ZM19.4792 1.36438C19.5307 1.23225 19.6209 1.11874 19.738 1.03872C19.8551 0.958705 19.9936 0.915894 20.1354 0.915894C20.2772 0.915894 20.4157 0.958705 20.5328 1.03872C20.6499 1.11874 20.7401 1.23225 20.7917 1.36438L21.4187 2.96125C21.4537 3.0516 21.5071 3.13373 21.5753 3.2025C21.6436 3.27126 21.7253 3.32517 21.8154 3.36084L23.4064 3.99084C23.5382 4.04332 23.6512 4.13412 23.7308 4.2515C23.8104 4.36889 23.8529 4.50745 23.8529 4.64927C23.8529 4.7911 23.8104 4.92966 23.7308 5.04704C23.6512 5.16443 23.5382 5.25523 23.4064 5.30771L21.8169 5.93771C21.7268 5.97328 21.645 6.02697 21.5765 6.09545C21.508 6.16394 21.4543 6.24575 21.4187 6.33584L20.7917 7.93125C20.7401 8.06338 20.6499 8.17689 20.5328 8.25691C20.4157 8.33693 20.2772 8.37974 20.1354 8.37974C19.9936 8.37974 19.8551 8.33693 19.738 8.25691C19.6209 8.17689 19.5307 8.06338 19.4792 7.93125L18.8521 6.33438C18.8165 6.2443 18.7628 6.16248 18.6943 6.09399C18.6258 6.02551 18.544 5.97182 18.4539 5.93625L16.8644 5.30625C16.7326 5.25377 16.6196 5.16297 16.54 5.04559C16.4604 4.9282 16.4179 4.78964 16.4179 4.64782C16.4179 4.50599 16.4604 4.36743 16.54 4.25005C16.6196 4.13266 16.7326 4.04186 16.8644 3.98938L18.4539 3.35938C18.5442 3.32365 18.6261 3.26973 18.6946 3.20099C18.7631 3.13225 18.8167 3.05015 18.8521 2.95979L19.4792 1.36438ZM25.1185 11.3146C25.1701 11.1825 25.2603 11.069 25.3773 10.9889C25.4944 10.9089 25.633 10.8661 25.7748 10.8661C25.9166 10.8661 26.0551 10.9089 26.1722 10.9889C26.2893 11.069 26.3795 11.1825 26.431 11.3146L26.6585 11.8965C26.7314 12.0788 26.8744 12.2231 27.0567 12.2946L27.6371 12.525C27.7684 12.5777 27.8809 12.6685 27.9601 12.7858C28.0394 12.903 28.0817 13.0412 28.0817 13.1827C28.0817 13.3242 28.0394 13.4625 27.9601 13.5797C27.8809 13.6969 27.7684 13.7877 27.6371 13.8404L27.0567 14.0708C26.9666 14.1064 26.8848 14.1601 26.8163 14.2286C26.7478 14.2971 26.6941 14.3789 26.6585 14.469L26.431 15.0523C26.3795 15.1844 26.2893 15.2979 26.1722 15.3779C26.0551 15.458 25.9166 15.5008 25.7748 15.5008C25.633 15.5008 25.4944 15.458 25.3773 15.3779C25.2603 15.2979 25.1701 15.1844 25.1185 15.0523L24.8896 14.469C24.8542 14.379 24.8007 14.2973 24.7325 14.2288C24.6643 14.1603 24.5827 14.1066 24.4929 14.0708L23.9125 13.8404C23.7812 13.7877 23.6687 13.6969 23.5894 13.5797C23.5102 13.4625 23.4678 13.3242 23.4678 13.1827C23.4678 13.0412 23.5102 12.903 23.5894 12.7858C23.6687 12.6685 23.7812 12.5777 23.9125 12.525L24.4929 12.2946C24.5827 12.2589 24.6643 12.2051 24.7325 12.1366C24.8007 12.0681 24.8542 11.9864 24.8896 11.8965L25.1185 11.3131V11.3146ZM3.48561 20.3227C3.53714 20.1906 3.62734 20.0771 3.74443 19.9971C3.86152 19.917 4.00004 19.8742 4.14186 19.8742C4.28369 19.8742 4.4222 19.917 4.53929 19.9971C4.65638 20.0771 4.74659 20.1906 4.79811 20.3227L5.02707 20.906C5.06209 20.9962 5.11542 21.0781 5.1837 21.1467C5.25197 21.2152 5.3337 21.2688 5.42374 21.3042L6.00416 21.5331C6.13591 21.5856 6.24889 21.6764 6.32849 21.7938C6.40808 21.9112 6.45063 22.0497 6.45063 22.1916C6.45063 22.3334 6.40808 22.472 6.32849 22.5893C6.24889 22.7067 6.13591 22.7975 6.00416 22.85L5.42374 23.0804C5.33388 23.1161 5.25231 23.1698 5.18407 23.2383C5.11584 23.3068 5.0624 23.3886 5.02707 23.4785L4.79811 24.0619C4.74659 24.194 4.65638 24.3075 4.53929 24.3875C4.4222 24.4676 4.28369 24.5104 4.14186 24.5104C4.00004 24.5104 3.86152 24.4676 3.74443 24.3875C3.62734 24.3075 3.53714 24.194 3.48561 24.0619L3.25665 23.4785C3.22133 23.3886 3.16789 23.3068 3.09966 23.2383C3.03142 23.1698 2.94985 23.1161 2.85999 23.0804L2.27957 22.85C2.14782 22.7975 2.03483 22.7067 1.95524 22.5893C1.87564 22.472 1.83309 22.3334 1.83309 22.1916C1.83309 22.0497 1.87564 21.9112 1.95524 21.7938C2.03483 21.6764 2.14782 21.5856 2.27957 21.5331L2.85999 21.3042C2.94999 21.2683 3.03165 21.2144 3.09989 21.1456C3.16813 21.0769 3.22149 20.9948 3.25665 20.9046L3.48561 20.3227Z" fill="#F8F8F8"/>
</svg>
