<svg width="39" height="45" viewBox="0 0 39 45" fill="none" xmlns="http://www.w3.org/2000/svg">
<path d="M34.4387 13.7037L37.4562 10.6862C36.5 9.6025 35.5438 8.625 34.46 7.69L31.4425 10.75C28.1488 8.0725 24.005 6.5 19.5 6.5C14.4277 6.5 9.56322 8.51495 5.97658 12.1016C2.38995 15.6882 0.375 20.5527 0.375 25.625C0.375 30.6973 2.38995 35.5618 5.97658 39.1484C9.56322 42.735 14.4277 44.75 19.5 44.75C30.125 44.75 38.625 36.1862 38.625 25.625C38.625 21.12 37.0525 16.9762 34.4387 13.7037ZM21.625 27.75H17.375V12.875H21.625V27.75ZM25.875 0.125H13.125V4.375H25.875V0.125Z" fill="#F8F8F8"/>
</svg>
