<svg width="35" height="32" viewBox="0 0 35 32" fill="none" xmlns="http://www.w3.org/2000/svg">
<path d="M7 32V28.4444L8.75 26.6667H3.5C2.5375 26.6667 1.71325 26.3182 1.02725 25.6213C0.341253 24.9244 -0.0011637 24.0877 2.97114e-06 23.1111V3.55556C2.97114e-06 2.57778 0.343003 1.74045 1.029 1.04356C1.715 0.346669 2.53867 -0.00118217 3.5 3.0183e-06H31.5C32.4625 3.0183e-06 33.2867 0.348448 33.9727 1.04534C34.6587 1.74223 35.0012 2.57897 35 3.55556V23.1111C35 24.0889 34.657 24.9262 33.971 25.6231C33.285 26.32 32.4613 26.6679 31.5 26.6667H26.25L28 28.4444V32H7ZM3.5 23.1111H31.5V3.55556H3.5V23.1111Z" fill="#F8F8F8"/>
</svg>
