<svg width="27" height="30" viewBox="0 0 27 30" fill="none" xmlns="http://www.w3.org/2000/svg">
<path d="M23.7083 26.7083H3.29167V10.6667H23.7083M19.3333 0.458344V3.37501H7.66667V0.458344H4.75V3.37501H3.29167C1.67292 3.37501 0.375 4.67293 0.375 6.29168V26.7083C0.375 27.4819 0.682291 28.2238 1.22927 28.7707C1.77625 29.3177 2.51812 29.625 3.29167 29.625H23.7083C24.4819 29.625 25.2237 29.3177 25.7707 28.7707C26.3177 28.2238 26.625 27.4819 26.625 26.7083V6.29168C26.625 5.51813 26.3177 4.77626 25.7707 4.22928C25.2237 3.6823 24.4819 3.37501 23.7083 3.37501H22.25V0.458344M20.7917 16.5H13.5V23.7917H20.7917V16.5Z" fill="#F8F8F8"/>
</svg>
