<svg width="34" height="34" viewBox="0 0 34 34" fill="none" xmlns="http://www.w3.org/2000/svg">
<path d="M22.1217 0.333496H11.895C2.55504 0.333496 0.333374 2.55516 0.333374 11.8785V22.1052C0.333374 31.4435 2.53837 33.6668 11.8784 33.6668H22.105C31.4434 33.6668 33.6667 31.4618 33.6667 22.1218V11.8952C33.6667 2.55516 31.4617 0.333496 22.1217 0.333496ZM27.2434 24.1168H24.8117C23.8917 24.1168 23.615 23.3718 21.965 21.7218C20.525 20.3335 19.9167 20.1602 19.5517 20.1602C19.0484 20.1602 18.91 20.2985 18.91 20.9935V23.1802C18.91 23.7718 18.7184 24.1185 17.1734 24.1185C15.6739 24.0177 14.2199 23.5622 12.931 22.7894C11.6422 22.0166 10.5553 20.9486 9.76004 19.6735C7.87199 17.3235 6.55828 14.5654 5.92337 11.6185C5.92337 11.2535 6.06171 10.9235 6.75671 10.9235H9.18671C9.81171 10.9235 10.0367 11.2018 10.2817 11.8435C11.4617 15.3168 13.475 18.3368 14.2917 18.3368C14.605 18.3368 14.7417 18.1985 14.7417 17.4168V13.8402C14.6384 12.2085 13.7717 12.0702 13.7717 11.4802C13.7828 11.3245 13.8542 11.1794 13.9705 11.0755C14.0869 10.9715 14.2392 10.917 14.395 10.9235H18.215C18.7367 10.9235 18.91 11.1835 18.91 11.8085V16.6352C18.91 17.1568 19.135 17.3302 19.2917 17.3302C19.605 17.3302 19.8467 17.1568 20.42 16.5835C21.6515 15.0817 22.6576 13.4086 23.4067 11.6168C23.4833 11.4016 23.6282 11.2173 23.8193 11.0921C24.0103 10.967 24.2371 10.9077 24.465 10.9235H26.8967C27.625 10.9235 27.78 11.2885 27.625 11.8085C26.7409 13.7892 25.6468 15.6694 24.3617 17.4168C24.1 17.8168 23.995 18.0252 24.3617 18.4935C24.6034 18.8585 25.455 19.5702 26.0284 20.2468C26.8615 21.0779 27.5534 22.0394 28.0767 23.0935C28.285 23.7702 27.9367 24.1168 27.2434 24.1168Z" fill="#F8F8F8"/>
</svg>
