<svg width="34" height="28" viewBox="0 0 34 28" fill="none" xmlns="http://www.w3.org/2000/svg">
<path fill-rule="evenodd" clip-rule="evenodd" d="M17 0.666504C18.425 0.666504 19.8867 0.703171 21.3034 0.763171L22.9767 0.84317L24.5784 0.938171L26.0784 1.03984L27.4484 1.1465C28.9351 1.2603 30.3341 1.89475 31.3993 2.93824C32.4644 3.98172 33.1274 5.3674 33.2717 6.8515L33.3384 7.55984L33.4634 9.0765C33.58 10.6482 33.6667 12.3615 33.6667 13.9998C33.6667 15.6382 33.58 17.3515 33.4634 18.9232L33.3384 20.4398C33.3167 20.6832 33.295 20.9182 33.2717 21.1482C33.1274 22.6325 32.4641 24.0184 31.3986 25.0619C30.3331 26.1055 28.9338 26.7397 27.4467 26.8532L26.08 26.9582L24.58 27.0615L22.9767 27.1565L21.3034 27.2365C19.8698 27.2988 18.435 27.331 17 27.3332C15.5651 27.331 14.1303 27.2988 12.6967 27.2365L11.0234 27.1565L9.42171 27.0615L7.92171 26.9582L6.55171 26.8532C5.06496 26.7394 3.66596 26.1049 2.60083 25.0614C1.5357 24.018 0.872665 22.6323 0.728374 21.1482L0.661707 20.4398L0.536707 18.9232C0.40927 17.2851 0.341447 15.6429 0.333374 13.9998C0.333374 12.3615 0.420041 10.6482 0.536707 9.0765L0.661707 7.55984C0.683374 7.3165 0.705041 7.0815 0.728374 6.8515C0.872608 5.36767 1.5354 3.9822 2.60019 2.93874C3.66499 1.89529 5.06359 1.26067 6.55004 1.1465L7.91837 1.03984L9.41838 0.938171L11.0217 0.84317L12.695 0.763171C14.1292 0.700892 15.5645 0.668663 17 0.666504ZM13.6667 9.95817V18.0415C13.6667 18.8115 14.5 19.2915 15.1667 18.9082L22.1667 14.8665C22.319 14.7788 22.4456 14.6525 22.5335 14.5004C22.6215 14.3482 22.6678 14.1756 22.6678 13.9998C22.6678 13.8241 22.6215 13.6514 22.5335 13.4993C22.4456 13.3471 22.319 13.2209 22.1667 13.1332L15.1667 9.09317C15.0146 9.00537 14.8421 8.95917 14.6665 8.9592C14.491 8.95922 14.3185 9.00549 14.1664 9.09333C14.0144 9.18118 13.8882 9.3075 13.8004 9.45961C13.7127 9.61172 13.6666 9.78425 13.6667 9.95984V9.95817Z" fill="#F8F8F8"/>
</svg>
